<?xml version="1.0" ?><!DOCTYPE svg  PUBLIC '-//W3C//DTD SVG 1.1//EN'  'http://www.w3.org/Graphics/SVG/1.1/DTD/svg11.dtd'><svg height="512px" style="enable-background:new 0 0 512 512;" version="1.1" viewBox="0 0 512 512" width="512px" xml:space="preserve" xmlns="http://www.w3.org/2000/svg" xmlns:xlink="http://www.w3.org/1999/xlink"><g id="_x31_37-Creativecloud_x2C__creative_cloud_x2C__CC_x2C__adobe"><g><g><g><path d="M315.648,76.565c-53.652,0-101.672,23.802-134.451,61.307c-4.889-0.511-9.662-1.499-14.671-1.499      c-82.346,0-149.129,66.962-149.129,149.532c0,82.568,66.783,149.53,149.129,149.53h149.123      c98.844,0,178.955-80.33,178.955-179.438S414.492,76.565,315.648,76.565L315.648,76.565z M315.648,76.565" style="fill:#F84437;"/><path d="M315.648,106.471c-37.875,0-72.889,14.088-99.764,38.667c9.365,2.959,18.82,7.267,28.242,13.098      c0.479,0.272,0.957,0.572,1.436,0.868l0.088,0.061c19.928-14.593,44.143-22.791,69.998-22.791      c65.795,0,119.301,53.656,119.301,119.625c0,65.973-53.506,119.625-119.301,119.625c-25.766,0-50.344-8.167-71.104-23.687      c-8.41-6.219-15.268-12.772-20.998-20.005c-0.326-0.419-0.656-0.813-1.043-1.201l-44.438-54.305      c-5.25-6.403-14.649-7.355-20.995-2.096c-6.385,5.235-7.308,14.654-2.092,21.057l45.31,55.384      c0.234,0.3,0.502,0.598,0.773,0.866c7.215,8.913,15.658,16.866,25.74,24.315c25.855,19.35,56.576,29.578,88.846,29.578      c82.229,0,149.129-67.078,149.129-149.532C464.777,173.55,397.877,106.471,315.648,106.471L315.648,106.471z M315.648,106.471" style="fill:#FCFCFC;"/><path d="M181.404,374.278c-4.862,0.806-9.841,1.345-14.878,1.345c-49.337,0-89.48-40.255-89.48-89.718      c0-59.359,57.174-106.553,119.484-84.277c5.307,1.501,11.096,4.22,17.207,8.104c0.268,0.184,0.568,0.329,0.865,0.511      l93.145,58.469c7.008,4.362,16.195,2.243,20.549-4.788c4.355-6.997,2.238-16.212-4.709-20.605l-93.83-58.884      c-0.24-0.149-0.512-0.302-0.777-0.447c-8.322-5.207-16.496-8.942-23.383-10.826c-12.588-4.578-25.71-6.883-39.07-6.883      c-65.794,0-119.302,53.654-119.302,119.627c0,65.974,53.508,119.625,119.302,119.625c14.048,0,27.675-2.603,40.498-7.238      C197.359,390.965,188.951,382.979,181.404,374.278L181.404,374.278z M181.404,374.278" style="fill:#FCFCFC;"/></g></g></g></g><g id="Layer_1"/></svg>