<?xml version="1.0" ?><!DOCTYPE svg  PUBLIC '-//W3C//DTD SVG 1.1//EN'  'http://www.w3.org/Graphics/SVG/1.1/DTD/svg11.dtd'><svg height="512px" style="enable-background:new 0 0 512 512;" version="1.1" viewBox="0 0 512 512" width="512px" xml:space="preserve" xmlns="http://www.w3.org/2000/svg" xmlns:xlink="http://www.w3.org/1999/xlink"><g id="_x32_7-stockoverflow_x2C__question_x2C__stock_x2C__overflow"><g><g><rect height="40.348" style="fill:#FFC107;" width="188.404" x="123.479" y="395.086"/><path d="M439.164,202.9l-39.643,6.898L367.299,23.654l39.643-6.899L439.164,202.9z M439.164,202.9" style="fill:#FFC107;"/><path d="M128.846,321.94l187.603,17.343l-3.703,40.161l-187.599-17.31L128.846,321.94z M128.846,321.94" style="fill:#FFC107;"/><path d="M328.801,286.629l-10.449,38.955l-181.939-49.037l10.441-38.96L328.801,286.629z M328.801,286.629     " style="fill:#FFC107;"/><path d="M190.285,144.503l162.277,95.972l-20.43,34.749l-162.31-95.963L190.285,144.503z M190.285,144.503     " style="fill:#FFC107;"/><path d="M286.205,56.134l106.148,156.085l-33.229,22.721L252.947,78.864L286.205,56.134z M286.205,56.134" style="fill:#FFC107;"/><path d="M371.086,495.246H72.835V315.809h29.826v149.53H341.26v-149.53h29.826V495.246z M371.086,495.246" style="fill:#C5D4DC;"/></g></g></g><g id="Layer_1"/></svg>